<svg width="86" height="75" viewBox="0 0 86 75" fill="none" xmlns="http://www.w3.org/2000/svg">
<path fill-rule="evenodd" clip-rule="evenodd" d="M31.6942 0.748378C30.7285 1.24526 30.3904 2.0478 30.3904 3.84231V5.32232H23.7474C17.4214 5.32232 17.0729 5.33803 16.4416 5.65188C16.0147 5.86406 15.6578 6.21179 15.4401 6.6278C15.1135 7.25172 15.1019 7.57736 15.1019 16.0974C15.1019 24.8659 14.9993 27.4206 14.5016 31.026C12.9558 42.2278 8.21101 52.8218 2.04523 58.8388C1.17933 59.6835 0.360814 60.5823 0.226242 60.8361C-0.333719 61.8914 0.188608 63.368 1.32113 63.931C1.95216 64.2447 2.3011 64.2606 8.54299 64.2606H15.1019V68.1964C15.1019 72.6965 15.1846 73.0457 16.4095 73.7166L17.0797 74.0836H50.5385C83.7403 74.0836 84.0024 74.0812 84.6603 73.7541C85.0872 73.5419 85.4441 73.1942 85.6618 72.7782C85.9973 72.137 86 71.8813 86 39.703C86 7.52464 85.9973 7.26891 85.6618 6.6278C85.4441 6.21179 85.0872 5.86406 84.6603 5.65188C84.0293 5.3382 83.6804 5.32232 77.4385 5.32232H70.8796V3.84231C70.8796 2.01866 70.5429 1.23904 69.5399 0.740356C68.7002 0.322876 68.0188 0.322876 67.1791 0.740356C66.1761 1.23904 65.8394 2.01866 65.8394 3.84231V5.32232H59.4552H53.071V3.84231C53.071 2.01866 52.7343 1.23904 51.7314 0.740356C50.8917 0.322876 50.2102 0.322876 49.3706 0.740356C48.3676 1.23904 48.0309 2.01866 48.0309 3.84231V5.32232H41.7307H35.4305V3.84231C35.4305 2.01866 35.0938 1.23904 34.0908 0.740356C33.2631 0.328934 32.5049 0.33139 31.6942 0.748378ZM30.3904 11.7138C30.3904 12.8739 30.4634 13.3333 30.7285 13.8399C31.1089 14.5663 32.0768 15.1454 32.9104 15.1454C33.7441 15.1454 34.7119 14.5663 35.0923 13.8399C35.3574 13.3333 35.4305 12.8739 35.4305 11.7138V10.2338H41.7307H48.0309V11.7138C48.0309 13.5375 48.3676 14.3171 49.3706 14.8158C50.2102 15.2333 50.8917 15.2333 51.7314 14.8158C52.7343 14.3171 53.071 13.5375 53.071 11.7138V10.2338H59.4552H65.8394V11.7138C65.8394 12.8739 65.9125 13.3333 66.1776 13.8399C66.558 14.5663 67.5258 15.1454 68.3595 15.1454C69.1931 15.1454 70.161 14.5663 70.5414 13.8399C70.8065 13.3333 70.8796 12.8739 70.8796 11.7138V10.2338H75.9197H80.9599V15.1454V20.0569H50.551H20.1421V15.1454V10.2338H25.2662H30.3904V11.7138ZM80.8937 25.8279C80.8439 26.3006 80.7589 27.3137 80.7047 28.079C80.6506 28.8444 80.4548 30.5021 80.2699 31.7627C78.742 42.1713 74.6368 51.4392 68.6122 58.0803L67.4612 59.3491H37.8263H8.19119L8.77232 58.6533C10.8541 56.1608 13.9979 50.6093 15.6565 46.4972C17.9419 40.8307 19.481 34.1597 19.8869 28.1609C19.9418 27.3505 20.027 26.3006 20.0764 25.8279L20.1662 24.9684H50.5751H80.984L80.8937 25.8279ZM80.9599 58.6123V69.1721H50.551H20.1421V66.7163V64.2606H44.5095C72.7832 64.2606 69.2494 64.5535 71.7347 62.0042C74.6571 59.0067 77.2547 55.2597 79.499 50.804C80.2562 49.3009 80.8948 48.0668 80.9178 48.0617C80.9409 48.0567 80.9599 52.8045 80.9599 58.6123Z" fill="#8C8C8C"/>
</svg>
