<svg width="24" height="24" viewBox="0 0 24 24" fill="none" xmlns="http://www.w3.org/2000/svg">
<path d="M14.0601 9.91003H15.0601C15.1892 9.91006 15.3128 9.85812 15.4031 9.76592C15.4934 9.67373 15.5428 9.54906 15.5401 9.42003V7.82003C15.541 7.5698 15.3495 7.36088 15.1001 7.34003C15.1001 7.34003 14.3901 7.28003 13.5201 7.28003C11.3801 7.28003 10.2001 8.55003 10.2001 10.85V12.62H8.23011C8.10198 12.6173 7.97828 12.667 7.88766 12.7576C7.79704 12.8482 7.74735 12.9719 7.75011 13.1V14.56C7.74735 14.6882 7.79704 14.8119 7.88766 14.9025C7.97828 14.9931 8.10198 15.0428 8.23011 15.04H10.1701V20.7H13.0901V15.04H14.8501C15.0918 15.0376 15.2956 14.8593 15.3301 14.62L15.5101 13.16C15.5284 13.0218 15.4845 12.8826 15.3901 12.78C15.2985 12.6776 15.1675 12.6194 15.0301 12.62H13.0901V10.91C13.0899 10.3693 13.5196 9.92625 14.0601 9.91003Z" fill="#0B1C3F"/>
<path fill-rule="evenodd" clip-rule="evenodd" d="M2 11.91C2 6.43686 6.43686 2 11.91 2C14.5383 2 17.0589 3.04409 18.9174 4.90257C20.7759 6.76106 21.82 9.2817 21.82 11.91C21.82 17.3831 17.3831 21.82 11.91 21.82C6.43686 21.82 2 17.3831 2 11.91ZM20.32 11.91C20.32 7.26529 16.5547 3.5 11.91 3.5C7.26984 3.511 3.51099 7.26985 3.5 11.91C3.5 16.5547 7.26528 20.32 11.91 20.32C16.5547 20.32 20.32 16.5547 20.32 11.91Z" fill="#0B1C3F"/>
</svg>
