 <svg width="86" height="80" viewBox="0 0 86 80" fill="none" xmlns="http://www.w3.org/2000/svg">
<path fill-rule="evenodd" clip-rule="evenodd" d="M21.114 0.198642C20.1853 0.444509 19.1146 1.56399 18.8672 2.5478C18.7249 3.11366 18.6717 7.70614 18.6717 19.4185V35.5116L14.5271 35.5907C10.1997 35.6734 9.70826 35.7439 7.78683 36.5569C5.71152 37.4351 3.48046 39.2175 2.30072 40.9401C1.551 42.0346 0.830596 43.546 0.392523 44.9432L0 46.1952V57.7674V69.3396L0.3875 70.6813C1.04612 72.961 1.96798 74.4959 3.76782 76.3092C5.13027 77.682 5.5871 78.0244 6.94954 78.6948C9.82832 80.1115 7.04616 80.0061 41.2644 79.9934C58.5525 79.987 72.0949 79.9166 72.6237 79.8304C75.9613 79.2863 78.6321 77.9563 81.0221 75.6483C82.5259 74.1962 83.9643 72.0245 84.6144 70.2249C85.7156 67.1773 85.6552 69.2554 85.6552 34.4313C85.6552 -0.457116 85.7391 2.20784 84.6047 1.03402C83.5331 -0.0748979 85.5418 -0.0115023 52.0911 0.007617C31.7835 0.0193569 21.5531 0.0822492 21.114 0.198642ZM78.7894 36.5442V66.2216L78.3993 67.2975C77.381 70.1074 75.4956 71.9531 72.7608 72.8171C71.9048 73.0876 70.158 73.1084 48.0009 73.1106C25.3615 73.113 24.1682 73.0984 24.2845 72.8196C24.7656 71.668 25.2067 70.1029 25.3586 69.0095C25.48 68.1356 25.5375 57.9509 25.5375 37.2944V6.86657H52.1634H78.7894V36.5442ZM36.6757 21.4801C35.1407 21.8398 34.2068 22.9556 34.1157 24.5383C34.04 25.8502 34.5151 26.8514 35.5575 27.5769L36.2836 28.0822H48.0607H59.8377L60.5509 27.5791C63.0005 25.8512 62.2779 22.0991 59.3754 21.4757C58.2973 21.2441 37.6653 21.2481 36.6757 21.4801ZM36.7741 37.9048C35.2655 38.2067 34.2364 39.3343 34.1134 40.8204C33.9827 42.3995 34.6834 43.6893 35.9968 44.2867C36.6375 44.5781 37.4955 44.5947 52.1025 44.5983L67.5314 44.602L68.4238 44.135C69.1464 43.757 69.4053 43.4977 69.7828 42.7741C70.7237 40.97 70.148 39.1541 68.3232 38.1707L67.6534 37.8096L52.5821 37.7834C44.2929 37.7692 37.1792 37.8237 36.7741 37.9048ZM18.6336 55.6328L18.5879 68.8438L18.0367 69.9652C17.4129 71.2339 16.5126 72.1124 15.214 72.7192C14.5262 73.0405 14.0351 73.1297 12.7858 73.1596C11.3964 73.1928 11.1157 73.1473 10.2987 72.7567C8.93259 72.1037 8.04606 71.2448 7.41708 69.965L6.86581 68.8433V57.7709V46.6984L7.27424 45.867C7.99415 44.402 9.2938 43.217 10.7827 42.6682C11.2124 42.5097 12.4419 42.442 15.0333 42.4334L18.6795 42.4217L18.6336 55.6328ZM36.7741 53.3369C35.2581 53.635 34.2366 54.7615 34.1115 56.2731C33.972 57.9573 34.9048 59.4356 36.3776 59.8648C36.8153 59.9923 40.5024 60.033 48.4231 59.9982L59.8379 59.9477L60.5638 59.4424C61.6106 58.7136 62.0813 57.7166 62.0048 56.39C61.9554 55.5325 61.8554 55.2375 61.4401 54.7238C60.7058 53.8149 60.2282 53.5147 59.2158 53.3245C58.1072 53.1166 37.8382 53.1276 36.7741 53.3369Z" fill="#321D25"/>
</svg>
