<svg width="80" height="71" viewBox="0 0 80 71" fill="none" xmlns="http://www.w3.org/2000/svg">
<path fill-rule="evenodd" clip-rule="evenodd" d="M30.3271 0.679719C29.6039 1.10708 29.2705 1.53415 29.0726 2.28666C28.8379 3.1791 28.8379 67.8183 29.0726 68.7108C29.2705 69.4633 29.6039 69.8904 30.3271 70.3177C30.8491 70.6262 31.024 70.632 40 70.632C48.976 70.632 49.1509 70.6262 49.673 70.3177C50.3961 69.8904 50.7296 69.4633 50.9274 68.7108C51.1621 67.8183 51.1621 3.1791 50.9274 2.28666C50.7296 1.53415 50.3961 1.10708 49.673 0.679719C49.1509 0.371233 48.976 0.365479 40 0.365479C31.024 0.365479 30.8491 0.371233 30.3271 0.679719ZM45.7816 35.4987V65.6355H40H34.2184V35.4987V5.36197H40H45.7816V35.4987ZM60.0205 16.7173C59.3985 16.8631 58.8173 17.258 58.3702 17.8384L58.048 18.2567V43.6765V69.0963L58.3749 69.524C58.5547 69.7592 58.9366 70.1065 59.2235 70.2958L59.7454 70.6398L69.0813 70.5986C78.2788 70.5579 78.4238 70.5526 78.8582 70.2402C79.1008 70.0657 79.4563 69.6568 79.6484 69.3315L79.9973 68.74L80 43.7242C80.0017 26.3673 79.9514 18.5779 79.8357 18.2822C79.6268 17.7474 79.1254 17.2196 78.518 16.895C78.0992 16.671 77.1168 16.6416 69.2987 16.619C64.4859 16.6051 60.3106 16.6493 60.0205 16.7173ZM74.8459 43.6765V65.6355H68.9862H63.1264V43.6765V21.7176H68.9862H74.8459V43.6765ZM1.81878 33.1421C1.07186 33.404 0.491358 33.9116 0.21181 34.5474C0.0346118 34.9505 -0.00195296 37.9449 7.8417e-05 51.8874L0.00273483 68.74L0.351662 69.3315C0.543705 69.6568 0.899196 70.0657 1.14187 70.2402C1.57627 70.5526 1.72128 70.5579 10.9187 70.5986L20.2546 70.6398L20.7765 70.2958C21.0634 70.1065 21.4453 69.7592 21.6251 69.524C21.9517 69.097 21.952 69.0794 21.9931 51.9809C22.0339 34.927 22.033 34.8633 21.7112 34.3087C21.5337 34.0025 21.1337 33.5827 20.8224 33.376L20.2565 32.9999L11.338 32.9657C4.04595 32.9377 2.31006 32.9698 1.81878 33.1421ZM16.8736 51.8543V65.6355H11.0139H5.15414V51.8543V38.0732H11.0139H16.8736V51.8543Z" fill="#8C8C8C"/>
</svg>
