<svg width="80" height="79" viewBox="0 0 80 79" fill="none" xmlns="http://www.w3.org/2000/svg">
<path fill-rule="evenodd" clip-rule="evenodd" d="M36.412 0.765624C28.6816 1.49956 21.5369 4.26121 15.2725 8.93661C12.2219 11.2134 8.26029 15.4922 5.9709 18.9827C4.98217 20.4901 3.05748 24.31 2.368 26.133C1.59709 28.1715 0.775449 31.2866 0.371126 33.7038C-0.123709 36.6623 -0.123709 42.2794 0.371126 45.2379C1.07078 49.4202 2.17758 52.8012 4.07205 56.5443C6.1419 60.6336 8.29411 63.5323 11.7406 66.8726C15.1872 70.2128 18.1781 72.2987 22.3975 74.3047C26.2597 76.1407 29.7483 77.2134 34.0637 77.8915C37.1163 78.3711 42.9122 78.3711 45.9648 77.8915C50.2802 77.2134 53.7688 76.1407 57.631 74.3047C61.8504 72.2987 64.8413 70.2128 68.2879 66.8726C71.7344 63.5323 73.8866 60.6336 75.9565 56.5443C77.3312 53.828 78.0227 52.0478 78.7634 49.3181C79.7498 45.6827 80 43.6899 80 39.4708C80 35.2518 79.7498 33.259 78.7634 29.6236C78.0227 26.8938 77.3312 25.1136 75.9565 22.3973C73.8866 18.3081 71.7344 15.4094 68.2879 12.069C64.8413 8.72885 61.8504 6.643 57.631 4.63698C53.7725 2.8026 50.2149 1.70823 46.0431 1.07219C43.7413 0.721309 38.6016 0.557707 36.412 0.765624ZM32.4195 10.5421L37.4305 13.1736L37.4718 17.9602L37.4305 24.9029L31.5 29.7487L26 34.5945L19.1515 31.0664L15.193 29.2026L13.9706 23.7016L12.7482 18.2005L13.1803 17.643C13.8363 16.7966 16.6125 14.1547 17.9346 13.1185C19.8942 11.5828 22.1117 10.2199 24.5825 9.03268C25.8745 8.41181 27.0389 7.90538 27.1702 7.90735C27.3012 7.90917 29.6634 9.0949 32.4195 10.5421ZM55.4387 9.02691C57.8803 10.1931 60.0845 11.5468 62.0939 13.1142C63.5024 14.213 66.7806 17.3955 67.0912 17.9658C67.2931 18.3364 67.22 18.7867 66.2547 23.1164C65.673 25.7258 65.1235 28.1554 65.0338 28.5156L64.8704 29.1701L60.965 31.0638L53.4171 33.8779L48.5 29.6236L42 24.9029L42.521 17.9786L42.5197 13.2564L47.6482 10.584C50.4687 9.11418 52.8471 7.91023 52.9332 7.90841C53.0193 7.90659 54.1468 8.40999 55.4387 9.02691ZM17.7663 35.8138C19.6977 36.7413 22.5 37.9432 24 37.9866C25 41.3787 26.8149 46.951 27.7575 49.6166L28.6973 51.5549L24.719 56.3784C22.3845 59.095 22.2727 59.2003 21.7195 59.2031C21.4033 59.2047 18.9005 59.0888 16.1573 58.9455L11.1699 58.685L10.8118 58.2218C10.615 57.967 10.0733 57.1096 9.6084 56.3167C7.39511 52.542 5.99 48.6105 5.33168 44.3507L5.08912 42.7805L7.71112 40.0254L8.55851 39.1348C13.1706 34.2875 13.5486 33.8902 13.8008 33.9547C13.8233 33.9605 13.8448 33.9699 13.8682 33.9802C13.8834 33.9869 13.8994 33.9939 13.9171 34.0005C14.1028 34.0702 15.8349 34.886 17.7663 35.8138ZM70.7065 38.2971L74.8562 42.7168L74.8075 43.4841C74.6306 46.272 73.1747 50.9711 71.4195 54.4205L70.2607 56.6979L64.0078 57.9035L57.7547 59.1091L57.2837 58.5855C57.0245 58.2977 55.9269 57.0464 54.8447 55.8051L52.877 53.5482L51.2207 51.0703C51.3169 50.81 51.4431 50.2991 51.6145 49.6052C51.9724 48.1567 52.5273 45.9109 53.4171 43.4841L55.4387 37.5454L62.5713 35.7259C64.6772 34.7097 66.4354 33.878 66.4785 33.8779C66.5216 33.8777 68.4242 35.8664 70.7065 38.2971ZM51.2207 59.1469C52.5071 60.6201 53.6108 61.9089 53.6734 62.0109C53.7891 62.1991 49.2487 71.874 48.894 72.1953C48.4302 72.6154 44.3652 73.2797 41.4236 73.4161C38.0836 73.5709 33.3839 73.017 30.3022 72.1053L29.2812 71.8032L27.7575 67.1877C26.9196 64.6493 26.2341 62.4906 26.2341 62.3906C26.2341 62.2906 27.3426 60.9171 28.6973 59.3386L32.5 53.5482H40L47 53.5567L51.2207 59.1469ZM39.5 31.687L31 38.9558L34.5 47.6782C38.3333 47.8398 46.1 48.0659 46.5 47.6782C46.9 47.2906 48.6667 41.0556 49.5 37.9866L39.5 31.687ZM22.3975 63.6694C22.3975 62.8941 18.2374 63.3464 16.1573 63.6694L23 68.9998C22.7992 67.5461 22.3975 64.4447 22.3975 63.6694ZM57.7547 63.6694L54.8447 70.4536C58.124 69.0084 65.1642 65.2967 67.0912 62.0109L57.7547 63.6694ZM70.7065 22.3973L69 29.7487L74.8075 36.5329C74.8238 39.4345 74.8562 43.4969 74.8562 36.5329C74.8562 29.5688 72.0897 24.2075 70.7065 22.3973ZM40 9.03268L32.5 5.03506C34.861 4.38895 40.9664 3.4844 46.5 5.03506L40 9.03268ZM10.8118 30.2333L9 23.1164C6.80754 25.1762 4.80118 32.919 4.07205 36.5329L10.8118 30.2333Z" fill="#8C8C8C"/>
</svg>
