<?xml version="1.0" encoding="UTF-8"?>
<svg width="350" height="210" version="1.1" viewBox="0 0 349.99982 209.99983" xmlns="http://www.w3.org/2000/svg" xmlns:cc="http://creativecommons.org/ns#" xmlns:dc="http://purl.org/dc/elements/1.1/" xmlns:rdf="http://www.w3.org/1999/02/22-rdf-syntax-ns#"><metadata><rdf:RDF><cc:Work rdf:about=""><dc:format>image/svg+xml</dc:format><dc:type rdf:resource="http://purl.org/dc/dcmitype/StillImage"/><dc:title/></cc:Work></rdf:RDF></metadata><g transform="translate(-180 -146.81)"><path d="m185.05 151.6h340v200.5h-340z" fill="#74acdf" stroke-width=".425"/><path d="m185.05 216.44h340v70.835h-340z" fill="#fff" stroke-width=".425"/><g fill="#f6b40e" stroke="#85340a" stroke-width=".47243"><path d="m360.48 262.33a11.806 11.806 0 0 1 -1.873 0.76563l7.1894 15.662s0.209 0.50201 0.54492 0.36328c0.33583-0.13884 0.12696-0.64258 0.12696-0.64258zm-2.1211 0.84766a11.806 11.806 0 0 1 -2.0898 0.4043c0.51486 2.8163 2.0892 4.8359 1.8262 7.7559-0.32168 3.5785 1.6439 5.6007 2.0996 6.9922 0.45615 1.3916-0.49484 2.2239-0.0859 2.4219 0.40943 0.19813 1.3055-0.90058 1.0137-2.8789-0.29186-1.9783-1.7944-2.5652-1.4414-6.9356 0.29925-3.7076-1.1801-5.0183-1.3223-7.7598z"/><path d="m351.69 263.16c-0.5985 2.7951 0.0796 5.2613-1.2793 7.8555-1.6666 3.183-0.62489 5.8037-0.73633 7.2637-0.11112 1.4602-1.3059 1.8657-1.0039 2.2051 0.30244 0.33973 1.5497-0.33402 2.0371-2.2734 0.48742-1.9394-0.67438-3.0564 1.3242-6.959 1.6952-3.3107 0.82654-5.0868 1.7441-7.6738a11.806 11.806 0 0 1 -2.0859 -0.41797zm2.3496 0.44141 0.64844 17.215s-1.6e-4 0.54453 0.36328 0.54492c0.3634 2.4e-4 0.36328-0.54492 0.36328-0.54492l0.64844-17.215a11.806 11.806 0 0 1 -1.0117 0.0508 11.806 11.806 0 0 1 -1.0117 -0.0508z"/><path d="m347.62 261.01c-1.6254 2.3546-1.9398 4.8936-4.1894 6.7715-2.7578 2.3029-2.7993 5.1216-3.4609 6.4277-0.66147 1.3066-1.9206 1.2252-1.7715 1.6543 0.14941 0.42961 1.5594 0.28495 2.752-1.3203 1.1925-1.6053 0.54483-3.0831 3.8848-5.9238 2.8305-2.4077 2.7125-4.3791 4.5449-6.416a11.806 11.806 0 0 1 -1.7598 -1.1934zm2 1.3086-5.9902 16.154s-0.20866 0.50313 0.12696 0.64258c0.33565 0.13929 0.54297-0.36524 0.54297-0.36524l7.1855-15.652a11.806 11.806 0 0 1 -1.8652 -0.7793z"/><path d="m344.68 257.47c-2.4045 1.5534-3.6667 3.778-6.4648 4.6523-3.4292 1.0722-4.5471 3.6637-5.6582 4.6172-1.1111 0.95398-2.243 0.39415-2.2695 0.84766-0.0264 0.45408 1.3328 0.86069 3.0488-0.16602 1.716-1.0267 1.6827-2.638 5.8555-3.9844 3.5388-1.142 4.1835-3.0109 6.6602-4.1914a11.806 11.806 0 0 1 -1.1719 -1.7754zm1.3457 1.9746-11.719 12.633s-0.38561 0.38531-0.1289 0.64258c0.2568 0.25714 0.64257-0.12891 0.64257-0.12891l12.625-11.709a11.806 11.806 0 0 1 -1.4199 -1.4375z"/></g><g fill="#85340a" stroke-width=".425"><path d="m359.82 262.64a11.806 11.806 0 0 1 -0.54492 0.23633l3.3848 7.3926zm-2.1641 0.7168a11.806 11.806 0 0 1 -0.6289 0.13867c0.52559 3.0021 2.1771 4.6987 1.7988 7.7949 0.85344-2.516-0.92734-4.525-1.1699-7.9336z"/><path d="m352.42 263.35c-0.6676 2.9799 0.21186 5.1795-1.3242 7.8984 1.7513-1.9978 0.87491-4.5335 1.9551-7.7754a11.806 11.806 0 0 1 -0.63086 -0.12305zm2.3106 0.28906 0.29688 8.1348 0.29687-8.1289a11.806 11.806 0 0 1 -0.28125 0.01 11.806 11.806 0 0 1 -0.3125 -0.0156z"/><path d="m348.22 261.48c-1.7555 2.4968-1.7852 4.8656-4.2441 6.7891 2.3826-1.1756 2.5425-3.8557 4.7812-6.4375a11.806 11.806 0 0 1 -0.53711 -0.35156zm2.0254 1.1523-2.8379 7.625 3.3867-7.4004a11.806 11.806 0 0 1 -0.54883 -0.22461z"/><path d="m345.06 258.13c-2.5757 1.6347-3.5106 3.8106-6.5176 4.6465 2.6512-0.17435 3.8242-2.5886 6.8809-4.1172a11.806 11.806 0 0 1 -0.36328 -0.52929zm1.4297 1.8398-5.5391 5.959 5.9629-5.543a11.806 11.806 0 0 1 -0.42383 -0.41602z"/></g><g fill="#f6b40e" stroke="#85340a" stroke-width=".47243"><path d="m343.32 253.07c-2.8163 0.51485-4.8359 2.0892-7.7559 1.8262-3.5785-0.32168-5.6007 1.6439-6.9922 2.0996-1.3916 0.45615-2.2239-0.49484-2.4219-0.0859-0.19814 0.40943 0.90058 1.3055 2.8789 1.0137 1.9783-0.29186 2.5652-1.7944 6.9356-1.4414 3.7076 0.29925 5.0183-1.1801 7.7598-1.3223a11.806 11.806 0 0 1 -0.4043 -2.0898zm0.48633 2.3379-15.662 7.1894s-0.502 0.209-0.36328 0.54492c0.13885 0.33583 0.64258 0.12696 0.64258 0.12696l16.148-5.9883a11.806 11.806 0 0 1 -0.76563 -1.873z"/><path d="m326.54 245.42c-0.0464-4e-3 -0.0904 0.0111-0.13281 0.0488-0.33974 0.30244 0.33401 1.5497 2.2734 2.0371 1.9394 0.48742 3.0564-0.67438 6.959 1.3242 3.3107 1.6952 5.0868 0.82654 7.6738 1.7441a11.806 11.806 0 0 1 0.41797 -2.0859c-2.7951-0.5985-5.2613 0.0796-7.8555-1.2793-3.183-1.6666-5.8037-0.62489-7.2637-0.73633-1.2777-0.0972-1.7473-1.0247-2.0723-1.0527zm16.75 5.418-17.215 0.64844s-0.54453-1.6e-4 -0.54492 0.36328c-2.4e-4 0.3634 0.54492 0.36328 0.54492 0.36328l17.215 0.64844a11.806 11.806 0 0 1 -0.0508 -1.0117 11.806 11.806 0 0 1 0.0508 -1.0117z"/><path d="m331.03 235c-0.42962 0.14941-0.28495 1.5594 1.3203 2.752 1.6053 1.1925 3.0831 0.54484 5.9238 3.8848 2.4077 2.8305 4.3791 2.7125 6.416 4.5449a11.806 11.806 0 0 1 1.1934 -1.7598c-2.3546-1.6254-4.8936-1.9398-6.7715-4.1894-2.3029-2.7578-5.1216-2.7993-6.4277-3.4609-1.3066-0.66148-1.2252-1.9206-1.6543-1.7715zm-2.8789 5.3691c-0.14324-0.0103-0.30333 0.0217-0.37305 0.18946-0.13929 0.33565 0.36524 0.54297 0.36524 0.54297l15.652 7.1855a11.806 11.806 0 0 1 0.7793 -1.8652l-16.154-5.9902s-0.12629-0.0522-0.26953-0.0625z"/><path d="m339.31 227.09c-0.45409-0.0264-0.86069 1.3328 0.16602 3.0488 1.0267 1.716 2.638 1.6827 3.9844 5.8555 1.142 3.5388 3.0109 4.1835 4.1914 6.6602a11.806 11.806 0 0 1 1.7754 -1.1719c-1.5534-2.4045-3.778-3.6667-4.6523-6.4648-1.0722-3.4292-3.6637-4.5471-4.6172-5.6582-0.95398-1.1111-0.39416-2.243-0.84766-2.2695zm-4.9238 3.8027c-0.0723-6e-5 -0.14467 0.0237-0.20898 0.0879-0.25714 0.25679 0.12891 0.64257 0.12891 0.64257l11.709 12.625a11.806 11.806 0 0 1 1.4375 -1.4199l-12.633-11.719s-0.21679-0.21663-0.4336-0.21679z"/></g><g fill="#85340a" stroke-width=".425"><path d="m343.41 253.83c-3.0021 0.52559-4.6987 2.1771-7.7949 1.7988 2.516 0.85344 4.525-0.92733 7.9336-1.1699a11.806 11.806 0 0 1 -0.13867 -0.6289zm0.61914 2.248-7.3926 3.3848 7.6289-2.8398a11.806 11.806 0 0 1 -0.23633 -0.54492z"/><path d="m335.65 247.9c1.9978 1.7513 4.5335 0.8749 7.7754 1.9551a11.806 11.806 0 0 1 0.12305 -0.63086c-2.9799-0.6676-5.1795 0.21186-7.8984-1.3242zm7.6094 3.6348-8.1348 0.29688 8.1289 0.29687a11.806 11.806 0 0 1 -0.01 -0.28125 11.806 11.806 0 0 1 0.0156 -0.3125z"/><path d="m338.63 240.78c1.1756 2.3826 3.8557 2.5425 6.4375 4.7812a11.806 11.806 0 0 1 0.35156 -0.53711c-2.4968-1.7555-4.8656-1.7852-6.7891-4.2441zm-1.9883 3.4316 7.4004 3.3867a11.806 11.806 0 0 1 0.22461 -0.54883z"/><path d="m344.12 235.34c0.17435 2.6512 2.5886 3.8242 4.1172 6.8809a11.806 11.806 0 0 1 0.52929 -0.36328c-1.6347-2.5757-3.8106-3.5106-4.6465-6.5176zm-3.1523 2.4082 5.543 5.9629a11.806 11.806 0 0 1 0.41602 -0.42383z"/></g><g fill="#f6b40e" stroke="#85340a" stroke-width=".47243"><path d="m349.81 222.94c-0.44166 0.10475-1.0952 1.1635-0.83984 2.8945 0.29187 1.9783 1.7944 2.5652 1.4414 6.9356-0.29925 3.7076 1.1801 5.0183 1.3223 7.7598a11.806 11.806 0 0 1 2.0898 -0.4043c-0.51485-2.8163-2.0892-4.8359-1.8262-7.7559 0.32168-3.5785-1.6439-5.6007-2.0996-6.9922-0.45616-1.3916 0.49484-2.2239 0.0859-2.4219-0.0512-0.0248-0.11073-0.0306-0.17383-0.0156zm-5.9375 1.6211c-0.0378-4.9e-4 -0.0791 8e-3 -0.12109 0.0254-0.33584 0.13885-0.12695 0.64258-0.12696 0.64258l5.9883 16.148a11.806 11.806 0 0 1 1.873 -0.76563l-7.1894-15.662s-0.15896-0.3852-0.42383-0.38867z"/><path d="m355.05 222.34c-0.36341-2.4e-4 -0.36328 0.54492-0.36328 0.54492l-0.64844 17.215a11.806 11.806 0 0 1 1.0117 -0.0508 11.806 11.806 0 0 1 1.0117 0.0508l-0.64844-17.215s1.5e-4 -0.54453-0.36328-0.54492zm6.2266 0.79687c-0.44813-0.0722-1.4563 0.65652-1.8828 2.3535-0.48742 1.9394 0.67438 3.0564-1.3242 6.959-1.6952 3.3107-0.82654 5.0868-1.7441 7.6738a11.806 11.806 0 0 1 2.0859 0.41797c0.59849-2.7951-0.0796-5.2613 1.2793-7.8555 1.6666-3.183 0.62488-5.8037 0.73633-7.2637 0.11112-1.4602 1.3059-1.8657 1.0039-2.2051-0.0378-0.0425-0.0903-0.0698-0.1543-0.0801z"/><path d="m366.22 224.56c-0.26475 3e-3 -0.42383 0.38868-0.42383 0.38868l-7.1855 15.652a11.806 11.806 0 0 1 1.8652 0.7793l5.9902-16.154s0.20866-0.50314-0.12696-0.64258c-0.0419-0.0174-0.0813-0.0239-0.11914-0.0234zm5.3535 3.0762c-0.51564-0.0654-1.5333 0.31558-2.4277 1.5195-1.1925 1.6053-0.54483 3.0831-3.8848 5.9238-2.8305 2.4077-2.7125 4.3791-4.5449 6.416a11.806 11.806 0 0 1 1.7598 1.1934c1.6254-2.3546 1.9398-4.8936 4.1894-6.7715 2.7578-2.3029 2.7993-5.1216 3.4609-6.4277 0.66147-1.3066 1.9206-1.2252 1.7715-1.6543-0.0374-0.1074-0.15234-0.17741-0.32422-0.19921z"/><path d="m375.71 230.9c-0.21671-1e-5 -0.43359 0.2168-0.43359 0.2168l-12.625 11.709a11.806 11.806 0 0 1 1.4199 1.4375l11.719-12.633s0.38561-0.38532 0.1289-0.64258c-0.0642-0.0643-0.13674-0.0879-0.20898-0.0879zm3.2285 4.748c-0.5508-0.03-1.3197 0.12531-2.1777 0.63867-1.716 1.0267-1.6827 2.638-5.8555 3.9844-3.5388 1.142-4.1835 3.0109-6.6602 4.1914a11.806 11.806 0 0 1 1.1719 1.7754c2.4045-1.5534 3.6667-3.778 6.4648-4.6523 3.4292-1.0722 4.5471-3.6637 5.6582-4.6172 1.1111-0.95398 2.243-0.39416 2.2695-0.84766 0.0132-0.22704-0.32029-0.44262-0.8711-0.47265z"/></g><g fill="#85340a" stroke-width=".425"><path d="m351.27 232.42c-0.85344 2.516 0.92733 4.525 1.1699 7.9336a11.806 11.806 0 0 1 0.6289 -0.13867c-0.52559-3.0021-2.1771-4.6987-1.7988-7.7949zm-3.834 1.0215 2.8398 7.6289a11.806 11.806 0 0 1 0.54492 -0.23633z"/><path d="m355.06 231.93-0.29687 8.1289a11.806 11.806 0 0 1 0.28125 -0.01 11.806 11.806 0 0 1 0.3125 0.0156zm3.9316 0.52539c-1.7513 1.9978-0.87491 4.5335-1.9551 7.7754a11.806 11.806 0 0 1 0.63086 0.12305c0.6676-2.9799-0.21186-5.1795 1.3242-7.8984z"/><path d="m362.69 233.45-3.3867 7.4004a11.806 11.806 0 0 1 0.54883 0.22461zm3.4316 1.9883c-2.3826 1.1756-2.5425 3.8557-4.7812 6.4375a11.806 11.806 0 0 1 0.53711 0.35156c1.7555-2.4967 1.7852-4.8656 4.2441-6.7891z"/><path d="m369.15 237.77-5.9629 5.543a11.806 11.806 0 0 1 0.42383 0.41602zm2.4082 3.1524c-2.6512 0.17435-3.8242 2.5886-6.8809 4.1172a11.806 11.806 0 0 1 0.36328 0.52929c2.5757-1.6347 3.5106-3.8106 6.5176-4.6465z"/></g><g fill="#f6b40e" stroke="#85340a" stroke-width=".47243"><path d="m381.94 240.37c-0.14325 0.0102-0.26953 0.0605-0.26953 0.0605l-16.148 5.9883a11.806 11.806 0 0 1 0.76563 1.873l15.662-7.1894s0.502-0.209 0.36328-0.54492c-0.0694-0.16792-0.2298-0.19773-0.37305-0.1875zm-0.17578 5.3496c-0.21901 3e-3 -0.45193 0.0202-0.69922 0.0566-1.9783 0.29186-2.5652 1.7944-6.9356 1.4414-3.7076-0.29925-5.0183 1.1801-7.7598 1.3223a11.806 11.806 0 0 1 0.4043 2.0898c2.8163-0.51485 4.8359-2.0892 7.7559-1.8262 3.5785 0.32168 5.6007-1.6439 6.9922-2.0996 1.3916-0.45615 2.2239 0.49484 2.4219 0.0859 0.17336-0.35825-0.64663-1.0889-2.1797-1.0703z"/><path d="m366.8 250.84a11.806 11.806 0 0 1 0.0508 1.0117 11.806 11.806 0 0 1 -0.0508 1.0117l17.215-0.64844s0.54453 1.5e-4 0.54492-0.36328c2.4e-4 -0.36341-0.54492-0.36328-0.54492-0.36328zm-0.0234 2.2871a11.806 11.806 0 0 1 -0.41797 2.0859c2.7951 0.59849 5.2613-0.0796 7.8555 1.2793 3.183 1.6666 5.8037 0.62488 7.2637 0.73633 1.4603 0.11112 1.8657 1.3059 2.2051 1.0039 0.33974-0.30244-0.33401-1.5497-2.2734-2.0371-1.9394-0.48742-3.0564 0.67438-6.959-1.3242-3.3107-1.6952-5.0868-0.82654-7.6738-1.7441z"/><path d="m366.3 255.42a11.806 11.806 0 0 1 -0.7793 1.8652l16.154 5.9902s0.50314 0.20866 0.64258-0.12696c0.13929-0.33565-0.36524-0.54297-0.36524-0.54297zm-0.89453 2.1055a11.806 11.806 0 0 1 -1.1934 1.7598c2.3546 1.6254 4.8936 1.9398 6.7715 4.1894 2.3029 2.7578 5.1216 2.7993 6.4277 3.4609 1.3066 0.66147 1.2252 1.9206 1.6543 1.7715 0.42962-0.14941 0.28495-1.5594-1.3203-2.752-1.6053-1.1925-3.0831-0.54483-5.9238-3.8848-2.4077-2.8305-4.3791-2.7125-6.416-4.5449z"/><path d="m364.08 259.46a11.806 11.806 0 0 1 -1.4375 1.4199l12.633 11.719s0.38532 0.38562 0.64258 0.1289c0.25714-0.25679-0.12891-0.64257-0.12891-0.64257zm-1.6367 1.5938a11.806 11.806 0 0 1 -1.7754 1.1719c1.5534 2.4045 3.778 3.6667 4.6523 6.4648 1.0722 3.4292 3.6637 4.5471 4.6172 5.6582 0.95398 1.1111 0.39416 2.243 0.84766 2.2695 0.45409 0.0264 0.86069-1.3328-0.16602-3.0488-1.0267-1.716-2.638-1.6827-3.9844-5.8555-1.142-3.5388-3.0109-4.1835-4.1914-6.6602z"/></g><g fill="#85340a" stroke-width=".425"><path d="m373.46 244.24-7.6289 2.8398a11.806 11.806 0 0 1 0.23633 0.54492zm-0.49023 3.6055c-1.8928 0.0472-3.7177 1.206-6.4219 1.3984a11.806 11.806 0 0 1 0.13867 0.6289c3.0021-0.52559 4.6987-2.1771 7.7949-1.7988-0.51995-0.17638-1.0187-0.24081-1.5117-0.22852z"/><path d="m366.84 251.57a11.806 11.806 0 0 1 0.01 0.28125 11.806 11.806 0 0 1 -0.0156 0.3125l8.1348-0.29688zm-0.17187 2.2734a11.806 11.806 0 0 1 -0.12305 0.63086c2.9799 0.6676 5.1795-0.21186 7.8984 1.3242-1.9978-1.7513-4.5335-0.87491-7.7754-1.9551z"/><path d="m366.05 256.1a11.806 11.806 0 0 1 -0.22461 0.54883l7.625 2.8379zm-1.0254 2.0371a11.806 11.806 0 0 1 -0.35156 0.53711c2.4967 1.7555 4.8656 1.7852 6.7891 4.2441-1.1756-2.3826-3.8557-2.5425-6.4375-4.7812z"/><path d="m363.58 259.99a11.806 11.806 0 0 1 -0.41602 0.42383l5.959 5.5391zm-1.7266 1.4902a11.806 11.806 0 0 1 -0.52929 0.36328c1.6347 2.5757 3.8106 3.5106 4.6465 6.5176-0.17435-2.6512-2.5886-3.8242-4.1172-6.8809z"/></g><path d="m366.85 251.85a11.806 11.806 0 0 1 -11.806 11.806 11.806 11.806 0 0 1 -11.806 -11.806 11.806 11.806 0 0 1 11.806 -11.806 11.806 11.806 0 0 1 11.806 11.806z" fill="#f6b40e" stroke="#85340a" stroke-width=".6375"/><path d="m359.07 249.33c-0.8061 1e-5 -1.5781 0.34928-2.032 1.0758 0.9081 0.81715 2.914 0.90602 4.2764-0.093-0.59003-0.63554-1.4384-0.98281-2.2445-0.98281zm-0.0133 0.18594c0.78464-0.0142 1.518 0.34614 1.6203 0.70388-0.9081 0.99892-2.3591 0.91218-3.2672 0.18594 0.39729-0.63567 1.0366-0.87877 1.6469-0.88986z" fill="#843511" stroke-width=".425"/><g fill="#85340a" stroke-width=".425"><path d="m359.22 248.77c-1.1801 0-1.4529 0.27272-1.9978 0.72675-0.5454 0.45403-0.8174 0.36299-0.9081 0.45403-0.0903 0.091 0 0.36299 0.18131 0.27196 0.1813-0.091 0.5454-0.27196 1.0894-0.72616 0.5454-0.45458 1.0894-0.45403 1.6347-0.45403 1.6347 0 2.5428 1.362 2.724 1.271 0.18131-0.091-0.90809-1.5438-2.724-1.5438z"/><path d="m362.49 249.31c-2.0887-1.816-4.7218-2.0888-6.1752-0.72615-0.35572 0.47629-0.58365 0.98557-0.6772 1.5171-0.18283 1.034 0.14038 2.1512 0.9506 3.2962-0.0914-4.2e-4 -0.27349 0.0903-0.36414 0.18131-0.7211-1.3787-0.9761-2.7948-0.7395-4.1418 0.062-0.3519 0.15874-0.69827 0.28458-1.0352 1.9978-1.6342 4.7218-1.816 6.7197 0.90852z"/><path d="m359.86 250.22a0.81727 0.81727 0 0 1 -0.81727 0.81727 0.81727 0.81727 0 0 1 -0.81728 -0.81727 0.81727 0.81727 0 0 1 0.81728 -0.81728 0.81727 0.81727 0 0 1 0.81727 0.81728z"/><path d="m361.4 250.76c-1.5439 1.1808-3.0876 1.0899-3.9957 0.54485-0.9081-0.54485-0.9081-0.72615-0.72675-0.72615 0.1813 0 0.36261 0.1813 1.0894 0.54442 0.72675 0.36376 1.816 0.36376 3.632-0.36299z"/><path d="m353.24 253.48c-0.3882 0.0708-0.66406 0.41534-0.66406 0.81014 0 0.45109 0.37293 0.81013 0.82343 0.81013 0.26634 0 0.51107-0.12614 0.66407-0.34531 0.31429 0.23636 0.74995 0.26142 0.98281 0.26562 0.0358 8.5e-4 0.0821 0 0.10625 0 0.23286-4e-3 0.66852-0.0293 0.98281-0.26562 0.153 0.21917 0.39773 0.34531 0.66406 0.34531 0.4505 0 0.82344-0.35907 0.82344-0.81014 0-0.39481-0.2759-0.73933-0.66406-0.81013 0.21802 0.0769 0.35859 0.28751 0.35859 0.51799 0 0.30064-0.24277 0.54451-0.54451 0.54451-0.28917 0-0.52755-0.22956-0.54451-0.51799-0.0887 0.17696-0.43949 0.70342-1.1289 0.73049-0.68944-0.027-1.0402-0.55352-1.1289-0.73049-0.017 0.2884-0.25536 0.51799-0.54451 0.51799-0.30175 0-0.54451-0.24389-0.54451-0.54451 0-0.23046 0.14057-0.44107 0.3586-0.51799z"/><path d="m354.13 255.9c-0.90865 0-1.2677 0.82314-2.0851 1.368 0.4542-0.18119 0.81158-0.53945 1.4476-0.90313 0.6358-0.36312 1.178 0.0797 1.5406 0.0797h0.0133c0.36261 0 0.90483-0.44268 1.5406-0.0797 0.6361 0.36376 1.0067 0.72195 1.4609 0.90313-0.81741-0.54485-1.1898-1.368-2.0984-1.368-0.18131 0-0.54043 0.098-0.90313 0.27891h-0.0133c-0.36266-0.18123-0.72177-0.27891-0.90312-0.27891z"/><path d="m353.82 256.98c-0.35866 0.0159-0.83283 0.0879-1.5141 0.29219 1.6351-0.3631 1.9959 0.18593 2.7226 0.18593h0.0133c0.72675 0 1.0875-0.54909 2.7226-0.18593-1.8166-0.54485-2.1778-0.18594-2.7226-0.18594h-0.0133c-0.34053 0-0.61081-0.13277-1.2086-0.10625z"/><path d="m352.39 257.26c-0.10548 1e-3 -0.22045 2e-3 -0.34531 0.0133 1.9074 0.18176 0.9905 1.275 2.9883 1.275h0.0133c1.9978 0 1.0942-1.0933 3.0016-1.275-1.9978-0.1813-1.3662 0.99612-3.0016 0.99612h-0.0133c-1.5332 0-1.0608-1.0291-2.643-1.0094z"/><path d="m356.68 260.21c0-0.90244-0.7324-1.6348-1.6347-1.6348-0.9024 0-1.6347 0.73227-1.6347 1.6348 0.17977-0.75692 0.85705-1.2917 1.6347-1.2917 0.77916 0 1.4552 0.5349 1.6347 1.2917z"/><path d="m347.71 249.31c2.0887-1.816 4.7218-2.0888 6.1752-0.72615 0.35572 0.47629 0.58365 0.98557 0.67719 1.5171 0.18284 1.034-0.14037 2.1512-0.95059 3.2962 0.0914-4.2e-4 0.27348 0.0903 0.36414 0.18131 0.72109-1.3787 0.97609-2.7948 0.7395-4.1418-0.062-0.3519-0.15874-0.69827-0.28458-1.0352-1.9978-1.6342-4.7218-1.816-6.7197 0.90852z"/><path d="m350.98 248.77c1.1801 0 1.4529 0.27272 1.9978 0.72675 0.5454 0.45403 0.8174 0.36299 0.90809 0.45403 0.0903 0.091 0 0.36299-0.1813 0.27196-0.18131-0.091-0.5454-0.27196-1.0894-0.72616-0.54541-0.45458-1.0894-0.45403-1.6347-0.45403-1.6347 0-2.5428 1.362-2.724 1.271-0.1813-0.091 0.9081-1.5438 2.724-1.5438z"/></g><g stroke-width=".425"><path d="m350.92 249.33c-0.80609 1e-5 -1.5781 0.34928-2.032 1.0758 0.9081 0.81715 2.914 0.90602 4.2764-0.093-0.59002-0.63554-1.4384-0.98281-2.2445-0.98281zm-0.0133 0.18594c0.78464-0.0142 1.518 0.34614 1.6203 0.70388-0.9081 0.99892-2.3591 0.91218-3.2672 0.18594 0.39729-0.63567 1.0366-0.87877 1.6469-0.88986z" fill="#843511"/><path d="m351.84 250.22a0.81727 0.81727 0 0 1 -0.81727 0.81727 0.81727 0.81727 0 0 1 -0.81728 -0.81727 0.81727 0.81727 0 0 1 0.81728 -0.81728 0.81727 0.81727 0 0 1 0.81727 0.81728z" fill="#85340a"/><path d="m348.79 250.76c1.5439 1.1808 3.0876 1.0899 3.9957 0.54485 0.9081-0.54485 0.9081-0.72615 0.72675-0.72615-0.1813 0-0.36261 0.1813-1.0894 0.54442-0.72675 0.36376-1.816 0.36376-3.632-0.36299z" fill="#85340a"/></g></g><g transform="translate(-180 -146.81)"><path d="m183 149.81h344v204h-344v-204z" fill="none" stroke="#000" stroke-linecap="square" stroke-width="6" style="paint-order:stroke fill markers"/></g></svg>
